<svg width="50" height="50" viewBox="0 0 50 50" fill="none" xmlns="http://www.w3.org/2000/svg">
<path d="M24.9756 4.00391C13.4229 4.00391 4.02832 13.3984 4.02832 24.9512C4.02832 36.499 13.4277 45.8984 24.9756 45.8984C36.5283 45.8984 45.9229 36.5039 45.9229 24.9512C45.9229 13.4033 36.5283 4.00391 24.9756 4.00391ZM43.4131 23.7207H35.8545C35.6592 16.8896 33.833 11.0303 31.0938 7.51465C37.915 9.91211 42.9199 16.2109 43.4131 23.7207ZM23.7451 6.67969V23.7207H16.5674C16.8359 15.1514 19.917 7.96875 23.7451 6.67969ZM23.7451 26.1816V43.2227C19.917 41.9336 16.8408 34.751 16.5674 26.1816H23.7451ZM26.2109 43.2227V26.1816H33.3887C33.1152 34.751 30.0391 41.9336 26.2109 43.2227ZM26.2109 23.7207V6.67969C30.0391 7.96875 33.1152 15.1514 33.3887 23.7207H26.2109ZM18.8623 7.51465C16.123 11.0303 14.2969 16.8896 14.1016 23.7207H6.53809C7.03613 16.2109 12.0361 9.91211 18.8623 7.51465ZM6.53809 26.1816H14.0967C14.292 33.0127 16.1182 38.8721 18.8574 42.3877C12.0361 39.9902 7.03613 33.6914 6.53809 26.1816ZM31.0889 42.3877C33.8281 38.8721 35.6543 33.0127 35.8496 26.1816H43.4082C42.9199 33.6914 37.915 39.9902 31.0889 42.3877Z" fill="#D06713"/>
</svg>
