<svg width="42" height="42" viewBox="0 0 42 42" fill="none" xmlns="http://www.w3.org/2000/svg">
<path d="M24.9028 22.3H24.4028V22.8V38.5H17.0502V22.8V22.3H16.5502H10.7858V16.1H16.5502H17.0502V15.6V11.4604C17.0502 8.83454 17.8972 6.86618 19.3675 5.5485C20.8458 4.22367 23.0176 3.5 25.7694 3.5C27.117 3.5 28.4576 3.54343 29.4599 3.5964C29.9616 3.62291 30.3746 3.65161 30.6594 3.67804C30.662 3.67829 30.6646 3.67853 30.6672 3.67877V7.9H28.0434C26.4002 7.9 25.4056 8.39795 24.8836 9.30116C24.4046 10.1301 24.4028 11.1989 24.4028 12.0932V15.6V16.1H24.9028H31.1435L30.32 22.3H24.9028Z" fill="#D06713" stroke="#D06713"/>
</svg>
