<svg width="42" height="42" viewBox="0 0 42 42" fill="none" xmlns="http://www.w3.org/2000/svg">
<path d="M29.8139 0H12.2071C4.55927 0 0 4.557 0 12.201V29.778C0 37.443 4.55927 42 12.2071 42H29.7928C37.4407 42 41.9999 37.443 41.9999 29.799V12.201C42.0209 4.557 37.4617 0 29.8139 0ZM21.0105 29.148C16.5142 29.148 12.8584 25.494 12.8584 21C12.8584 16.506 16.5142 12.852 21.0105 12.852C25.5067 12.852 29.1625 16.506 29.1625 21C29.1625 25.494 25.5067 29.148 21.0105 29.148ZM33.4487 10.248C33.3436 10.5 33.1965 10.731 33.0074 10.941C32.7973 11.13 32.5662 11.277 32.3141 11.382C32.062 11.487 31.7888 11.55 31.5157 11.55C30.9484 11.55 30.4232 11.34 30.024 10.941C29.8349 10.731 29.6878 10.5 29.5827 10.248C29.4777 9.996 29.4147 9.723 29.4147 9.45C29.4147 9.177 29.4777 8.904 29.5827 8.652C29.6878 8.379 29.8349 8.169 30.024 7.959C30.5072 7.476 31.2426 7.245 31.9149 7.392C32.062 7.413 32.188 7.455 32.3141 7.518C32.4402 7.56 32.5662 7.623 32.6923 7.707C32.7973 7.77 32.9024 7.875 33.0074 7.959C33.1965 8.169 33.3436 8.379 33.4487 8.652C33.5537 8.904 33.6168 9.177 33.6168 9.45C33.6168 9.723 33.5537 9.996 33.4487 10.248Z" fill="black"/>
</svg>
