<svg width="42" height="42" viewBox="0 0 42 42" fill="none" xmlns="http://www.w3.org/2000/svg">
<path fill-rule="evenodd" clip-rule="evenodd" d="M0.5712 4.095C1.02179e-07 5.7 0 7.8 0 12V30C0 34.2 1.02179e-07 36.3 0.5712 37.905C1.07498 39.3158 1.87846 40.4626 2.8665 41.181C3.99 42 5.46 42 8.4 42H33.6C36.54 42 38.01 42 39.1335 41.181C40.1208 40.4621 40.9235 39.3154 41.4267 37.905C42 36.3 42 34.2 42 30V12C42 7.8 42 5.7 41.4267 4.095C40.9238 2.68352 40.1211 1.53568 39.1335 0.816C38.01 -5.36442e-07 36.54 0 33.6 0H8.4C5.46 0 3.99 -5.36442e-07 2.8665 0.816C1.87814 1.53517 1.07462 2.68306 0.5712 4.095ZM5.5587 6H36.4413C36.6668 5.99961 36.8863 6.10289 37.0675 6.29458C37.2487 6.48627 37.3819 6.75618 37.4473 7.06438C37.5128 7.37258 37.5071 7.7027 37.4311 8.00591C37.355 8.30912 37.2127 8.56932 37.0251 8.748L22.1676 22.944C21.8221 23.2742 21.4157 23.4505 21 23.4505C20.5843 23.4505 20.1779 23.2742 19.8324 22.944L4.9749 8.748C4.78732 8.56932 4.64498 8.30912 4.56894 8.00591C4.4929 7.7027 4.48719 7.37258 4.55267 7.06438C4.61814 6.75618 4.75132 6.48627 4.9325 6.29458C5.11368 6.10289 5.33324 5.99961 5.5587 6Z" fill="#D06713"/>
</svg>
