<svg width="42" height="42" viewBox="0 0 42 42" fill="none" xmlns="http://www.w3.org/2000/svg">
<g clip-path="url(#clip0_113_2556)">
<path fill-rule="evenodd" clip-rule="evenodd" d="M12.9394 39C28.4647 39 36.9566 25.1478 36.9566 13.1368C36.9566 12.7424 36.9566 12.3511 36.9319 11.9612C38.5838 10.6763 40.0094 9.08105 41.1429 7.2557C39.6041 7.99116 37.9687 8.47348 36.2962 8.68613C38.0571 7.54971 39.3758 5.76433 40.0073 3.65763C38.3493 4.71651 36.5369 5.46383 34.6464 5.86481C31.4496 2.20521 26.1031 2.0279 22.7026 5.4704C20.5118 7.69007 19.5799 10.9996 20.2608 14.1563C13.4743 13.7886 7.15063 10.3373 2.86354 4.65959C0.623315 8.81317 1.76914 14.1248 5.47817 16.792C4.13486 16.7499 2.82034 16.3604 1.64571 15.656V15.7713C1.64777 20.0977 4.48046 23.823 8.41783 24.6802C7.17531 25.0458 5.87109 25.0988 4.608 24.8351C5.71269 28.5391 8.88274 31.076 12.493 31.1491C9.504 33.6789 5.81143 35.0526 2.00983 35.0482C1.3392 35.0459 0.668571 35.0038 0 34.9174C3.86126 37.5846 8.352 39 12.9394 38.9934" fill="#D06713"/>
</g>
<defs>
<clipPath id="clip0_113_2556">
<rect width="42" height="42" rx="2" fill="white"/>
</clipPath>
</defs>
</svg>
