<svg width="42" height="42" viewBox="0 0 42 42" fill="none" xmlns="http://www.w3.org/2000/svg">
<g clip-path="url(#clip0_119_266)">
<mask id="path-2-inside-1_119_266" fill="white">
<path fill-rule="evenodd" clip-rule="evenodd" d="M12.9394 39C28.4647 39 36.9566 25.1478 36.9566 13.1368C36.9566 12.7424 36.9566 12.3511 36.9319 11.9612C38.5838 10.6763 40.0094 9.08105 41.1429 7.2557C39.6041 7.99116 37.9687 8.47348 36.2962 8.68614C38.0571 7.54971 39.3758 5.76433 40.0073 3.65763C38.3493 4.71651 36.5369 5.46383 34.6464 5.86481C31.4496 2.20521 26.1031 2.0279 22.7026 5.4704C20.5118 7.69007 19.5799 10.9996 20.2608 14.1563C13.4743 13.7886 7.15063 10.3373 2.86354 4.65959C0.623315 8.81317 1.76914 14.1248 5.47817 16.792C4.13486 16.7499 2.82034 16.3604 1.64571 15.656V15.7713C1.64777 20.0977 4.48046 23.823 8.41783 24.6802C7.17531 25.0458 5.87108 25.0988 4.608 24.8351C5.71268 28.5391 8.88274 31.076 12.493 31.1491C9.504 33.6789 5.81143 35.0526 2.00983 35.0482C1.3392 35.0459 0.668571 35.0038 0 34.9174C3.86126 37.5846 8.352 39 12.9394 38.9934"/>
</mask>
<path fill-rule="evenodd" clip-rule="evenodd" d="M12.9394 39C28.4647 39 36.9566 25.1478 36.9566 13.1368C36.9566 12.7424 36.9566 12.3511 36.9319 11.9612C38.5838 10.6763 40.0094 9.08105 41.1429 7.2557C39.6041 7.99116 37.9687 8.47348 36.2962 8.68614C38.0571 7.54971 39.3758 5.76433 40.0073 3.65763C38.3493 4.71651 36.5369 5.46383 34.6464 5.86481C31.4496 2.20521 26.1031 2.0279 22.7026 5.4704C20.5118 7.69007 19.5799 10.9996 20.2608 14.1563C13.4743 13.7886 7.15063 10.3373 2.86354 4.65959C0.623315 8.81317 1.76914 14.1248 5.47817 16.792C4.13486 16.7499 2.82034 16.3604 1.64571 15.656V15.7713C1.64777 20.0977 4.48046 23.823 8.41783 24.6802C7.17531 25.0458 5.87108 25.0988 4.608 24.8351C5.71268 28.5391 8.88274 31.076 12.493 31.1491C9.504 33.6789 5.81143 35.0526 2.00983 35.0482C1.3392 35.0459 0.668571 35.0038 0 34.9174C3.86126 37.5846 8.352 39 12.9394 38.9934" fill="black"/>
<path d="M36.9319 11.9612L36.3179 11.1719L35.9005 11.4966L35.9339 12.0244L36.9319 11.9612ZM41.1429 7.2557L41.9924 7.78323L43.7955 4.87945L40.7116 6.35346L41.1429 7.2557ZM36.2962 8.68613L35.754 7.84591L36.4224 9.67815L36.2962 8.68613ZM40.0073 3.65763L40.9652 3.94478L41.7384 1.36558L39.4691 2.81483L40.0073 3.65763ZM34.6464 5.86481L33.8933 6.52269L34.2795 6.96487L34.8539 6.84305L34.6464 5.86481ZM22.7026 5.4704L21.9912 4.76765L21.9909 4.76792L22.7026 5.4704ZM20.2608 14.1563L20.2067 15.1548L21.5145 15.2257L21.2383 13.9454L20.2608 14.1563ZM2.86354 4.65959L3.66159 4.057L2.72289 2.81381L1.9834 4.18489L2.86354 4.65959ZM5.47817 16.792L5.44685 17.7915L8.72377 17.8942L6.06199 15.9801L5.47817 16.792ZM1.64571 15.656L2.16003 14.7983L0.645715 13.8902V15.656H1.64571ZM1.64571 15.7713H0.645714L0.645715 15.7718L1.64571 15.7713ZM8.41783 24.6802L8.70005 25.6396L8.63057 23.7031L8.41783 24.6802ZM4.608 24.8351L4.8123 23.8562L3.1703 23.5135L3.64971 25.121L4.608 24.8351ZM12.493 31.1491L13.1391 31.9124L15.1589 30.2028L12.5133 30.1493L12.493 31.1491ZM2.00983 35.0482L2.00651 36.0482L2.00867 36.0482L2.00983 35.0482ZM0 34.9174L0.128134 33.9257L-0.568343 35.7402L0 34.9174ZM12.9394 40C29.1949 40 37.9566 25.5036 37.9566 13.1368H35.9566C35.9566 24.7921 27.7345 38 12.9394 38V40ZM37.9566 13.1368C37.9566 12.7478 37.9569 12.3248 37.9299 11.898L35.9339 12.0244C35.9562 12.3774 35.9566 12.7371 35.9566 13.1368H37.9566ZM37.5458 12.7505C39.2942 11.3906 40.7986 9.70574 41.9924 7.78323L40.2933 6.72816C39.2202 8.45637 37.8733 9.96204 36.3179 11.1719L37.5458 12.7505ZM40.7116 6.35346C39.2682 7.04337 37.7357 7.49506 36.1701 7.69412L36.4224 9.67815C38.2017 9.45191 39.94 8.93896 41.5741 8.15793L40.7116 6.35346ZM36.8385 9.52636C38.8095 8.25436 40.2689 6.26759 40.9652 3.94478L39.0494 3.37048C38.4827 5.26107 37.3048 6.84507 35.754 7.84591L36.8385 9.52636ZM39.4691 2.81483C37.9099 3.81057 36.2093 4.51108 34.4389 4.88657L34.8539 6.84305C36.8646 6.41658 38.7886 5.62246 40.5455 4.50042L39.4691 2.81483ZM35.3995 5.20693C31.8235 1.11317 25.8034 0.908261 21.9912 4.76765L23.4141 6.17314C26.4027 3.14753 31.0757 3.29724 33.8933 6.52269L35.3995 5.20693ZM21.9909 4.76792C19.5535 7.23738 18.5341 10.8941 19.2833 14.3672L21.2383 13.9454C20.6256 11.105 21.47 8.14276 23.4143 6.17287L21.9909 4.76792ZM20.3149 13.1578C13.8379 12.8068 7.7806 9.51208 3.66159 4.057L2.06549 5.26218C6.52066 11.1625 13.1107 14.7703 20.2067 15.1548L20.3149 13.1578ZM1.9834 4.18489C-0.483503 8.75874 0.757166 14.6288 4.89435 17.6038L6.06199 15.9801C2.78112 13.6208 1.73013 8.8676 3.74369 5.1343L1.9834 4.18489ZM5.50949 15.7924C4.33989 15.7558 3.1912 15.4168 2.16003 14.7983L1.1314 16.5136C2.44948 17.304 3.92983 17.7439 5.44685 17.7915L5.50949 15.7924ZM0.645715 15.656V15.7713H2.64571V15.656H0.645715ZM0.645715 15.7718C0.647972 20.5188 3.76164 24.6899 8.20508 25.6573L8.63057 23.7031C5.19928 22.956 2.64757 19.6766 2.64571 15.7708L0.645715 15.7718ZM8.13561 23.7209C7.05058 24.0401 5.91347 24.0861 4.8123 23.8562L4.4037 25.8141C5.8287 26.1115 7.30005 26.0514 8.70005 25.6396L8.13561 23.7209ZM3.64971 25.121C4.86689 29.202 8.38809 32.0662 12.4728 32.1489L12.5133 30.1493C9.3774 30.0858 6.55848 27.8761 5.56629 24.5493L3.64971 25.121ZM11.847 30.3858C9.03284 32.7676 5.56789 34.0523 2.01099 34.0482L2.00867 36.0482C6.05497 36.0529 9.97516 34.5902 13.1391 31.9124L11.847 30.3858ZM2.01315 34.0482C1.38223 34.0461 0.75335 34.0064 0.128134 33.9257L-0.128134 35.9092C0.583793 36.0012 1.29617 36.0458 2.00651 36.0482L2.01315 34.0482ZM-0.568343 35.7402C3.45612 38.5201 8.14479 40.0003 12.9409 39.9934L12.938 37.9934C8.55921 37.9997 4.26639 36.6491 0.568343 34.0946L-0.568343 35.7402Z" fill="black" mask="url(#path-2-inside-1_119_266)"/>
</g>
<defs>
<clipPath id="clip0_119_266">
<rect width="42" height="42" rx="2" fill="white"/>
</clipPath>
</defs>
</svg>
